<svg width="240" height="65" viewBox="0 0 240 65" fill="none" xmlns="http://www.w3.org/2000/svg">
<mask id="path-1-inside-1_29_433" fill="white">
<path d="M0 0H240V64.4992H0V0Z"/>
</mask>
<path d="M0 0H240V64.4992H0V0Z" fill="white"/>
<path d="M240 64.4992V63.4992H0V64.4992V65.4992H240V64.4992Z" fill="white" mask="url(#path-1-inside-1_29_433)"/>
<path d="M16 22.7061C16.5931 21.7042 17.3278 21.0019 18.213 20.5991C19.1071 20.2014 19.9569 20 20.7625 20C21.1519 20 21.6388 20.093 22.2319 20.2685C22.8339 20.4338 23.4579 20.7437 24.1086 21.1981C24.768 21.6526 25.3921 22.3084 25.9852 23.1605C26.5739 24.0023 27.0652 25.1178 27.4547 26.507C27.7025 27.3332 27.915 28.0666 28.092 28.6966C28.2691 29.3163 28.4373 29.936 28.6055 30.5557C28.7825 31.1754 28.9817 31.9398 29.2074 32.8487C29.4995 33.8712 29.7297 34.9454 29.8979 36.0712C30.0749 37.2021 30.2033 38.4364 30.2874 39.7688C30.4511 39.0974 30.6591 38.4261 30.907 37.765C31.1637 37.0937 31.4735 36.412 31.8276 35.72C32.6863 34.0158 33.0758 32.1567 32.9961 30.1426C32.912 28.1182 32.5225 26.1764 31.8276 24.3173C31.4381 23.2845 30.907 22.7164 30.2342 22.6028C29.5703 22.4943 29.0038 22.7577 28.5346 23.3878L27.9858 22.7061C28.5966 21.7042 29.349 21.0019 30.2342 20.5991C31.1283 20.2014 31.9693 20 32.7483 20C33.1599 20 33.66 20.093 34.2531 20.2685C34.8418 20.4338 35.4659 20.7437 36.1298 21.1981C36.7893 21.6526 37.4133 22.3084 38.0064 23.1605C38.5951 24.0023 39.0864 25.1178 39.4759 26.507L41.2286 32.8487C41.4986 33.8712 41.7243 34.935 41.9014 36.0505C42.0873 37.166 42.2245 38.3951 42.3086 39.7275C42.4723 39.0819 42.6804 38.4209 42.9282 37.7444C43.1849 37.0575 43.4815 36.381 43.8134 35.72C44.4508 34.4702 44.8314 33.1069 44.9642 31.6299C45.0926 30.1426 44.9996 28.6656 44.6809 27.1886C44.3711 25.7013 43.871 24.3483 43.1761 23.1192C42.4768 21.8798 41.6181 20.9037 40.5913 20.1859H49.9037C49.9037 21.4821 49.7355 22.8403 49.408 24.2553C49.076 25.6755 48.6511 27.0802 48.1333 28.4694C47.611 29.8637 47.0577 31.1754 46.4691 32.4149C45.8893 33.644 45.3404 34.7026 44.8226 35.5961C44.2295 36.6599 43.7603 37.765 43.4062 38.9218C43.061 40.0683 42.822 41.127 42.6804 42.103C42.5387 43.0842 42.4679 43.8795 42.4679 44.4992H41.6712C41.6712 43.2753 41.534 42.3199 41.264 41.6279C40.9896 40.9411 40.6355 40.4246 40.2018 40.0786C39.7636 39.7223 39.2856 39.4538 38.7677 39.273C38.2587 39.0974 37.7497 38.9218 37.2451 38.7566C36.7494 38.5913 36.298 38.3434 35.8996 38.0129C35.4968 37.6721 35.2092 37.166 35.0321 36.505C34.8639 35.9266 34.7046 35.3637 34.5541 34.8111C34.3992 34.2482 34.2575 33.6956 34.1292 33.1585C33.9035 33.613 33.6866 34.0468 33.4741 34.4599C33.2617 34.8627 33.0492 35.2397 32.8368 35.5961C32.2437 36.6599 31.7745 37.765 31.4204 38.9218C31.0752 40.0683 30.8273 41.127 30.6769 42.103C30.5219 43.0842 30.4467 43.8795 30.4467 44.4992H29.6677C29.6677 43.2753 29.5305 42.3199 29.2605 41.6279C28.9994 40.9411 28.6497 40.4246 28.216 40.0786C27.7778 39.7223 27.2998 39.4538 26.7819 39.273C26.2729 39.0974 25.7639 38.9218 25.2593 38.7566C24.7636 38.5913 24.3122 38.3434 23.9138 38.0129C23.511 37.6721 23.2145 37.166 23.0286 36.505C22.378 34.2069 21.8291 32.0172 21.3821 29.936C20.9439 27.86 20.4172 25.9854 19.8064 24.3173C19.4391 23.2845 18.9212 22.7164 18.2484 22.6028C17.589 22.4943 17.0091 22.7577 16.5134 23.3878L16 22.7061Z" fill="#1A4B84"/>
<path d="M62.0649 40.1721C60.8964 40.1721 59.843 39.857 58.9135 39.2218C57.9796 38.5918 57.2405 37.6881 56.7005 36.5158C56.1694 35.3332 55.9038 33.913 55.9038 32.2604C55.9038 30.5975 56.1694 29.1722 56.7005 27.9844C57.2405 26.8018 57.9796 25.8981 58.9135 25.2783C59.843 24.6483 60.8964 24.3281 62.0649 24.3281C63.2334 24.3281 64.2824 24.6483 65.2163 25.2783C66.1457 25.8981 66.8805 26.8018 67.4116 27.9844C67.9516 29.1722 68.226 30.5975 68.226 32.2604C68.226 33.913 67.9516 35.3332 67.4116 36.5158C66.8805 37.7035 66.1457 38.6125 65.2163 39.2425C64.2824 39.8622 63.2334 40.1721 62.0649 40.1721ZM62.0649 37.3627C62.7465 37.3627 63.344 37.1716 63.853 36.7843C64.3709 36.3867 64.7737 35.8083 65.0569 35.0491C65.349 34.2796 65.4995 33.3501 65.4995 32.2604C65.4995 31.1604 65.349 30.2309 65.0569 29.4717C64.7737 28.7022 64.3709 28.1239 63.853 27.7365C63.344 27.3389 62.7465 27.1375 62.0649 27.1375C61.3921 27.1375 60.7946 27.3389 60.2768 27.7365C59.7545 28.1239 59.3561 28.7022 59.0729 29.4717C58.7896 30.2309 58.648 31.1604 58.648 32.2604C58.648 33.3501 58.7896 34.2745 59.0729 35.0285C59.3561 35.7876 59.7545 36.366 60.2768 36.7637C60.7946 37.1665 61.3921 37.3627 62.0649 37.3627Z" fill="#222222"/>
<path d="M74.2258 39.9442V24.5547H79.3955C80.3958 24.5547 81.2544 24.7613 81.9626 25.1744C82.6708 25.5875 83.2063 26.1763 83.5737 26.9302C83.9499 27.6739 84.1402 28.557 84.1402 29.5743C84.1402 30.5814 83.9455 31.4541 83.556 32.1978C83.1753 32.9311 82.6265 33.494 81.9095 33.8917C81.188 34.279 80.3205 34.4701 79.307 34.4701H75.8369V31.9292H78.9883C79.5194 31.9292 79.962 31.8415 80.3161 31.6607C80.6702 31.4696 80.9358 31.2011 81.1128 30.8551C81.2898 30.4987 81.3784 30.0701 81.3784 29.5743C81.3784 29.0528 81.2898 28.619 81.1128 28.273C80.9358 27.9166 80.6702 27.6429 80.3161 27.4467C79.962 27.2556 79.5106 27.1575 78.9706 27.1575H76.9346V39.9442H74.2258ZM81.5908 39.9442L78.4217 32.9414H81.343L84.5828 39.9442H81.5908Z" fill="#222222"/>
<path d="M92.5659 36.5151V33.4165C92.8492 32.8795 93.1236 32.3785 93.398 31.9086C93.668 31.4283 93.9557 30.9532 94.2655 30.4833C94.5709 30.0185 94.9117 29.5124 95.2923 28.9753L98.5322 24.5547H101.825L96.2661 32.0532L96.0359 31.9912L92.5659 36.5151ZM90.583 39.9442V24.5547H93.2918V28.7687L93.2564 32.6729L93.2918 34.2222V39.9442H90.583ZM98.7801 39.9442L94.8674 32.9828L96.5494 30.6279L101.967 39.9442H98.7801Z" fill="#222222"/>
<path d="M107.967 39.9442V24.5547H113.119C114.119 24.5547 114.978 24.7768 115.686 25.2157C116.394 25.6443 116.93 26.2486 117.297 27.0335C117.673 27.8082 117.863 28.7016 117.863 29.7189C117.863 30.7415 117.673 31.6349 117.297 32.4044C116.916 33.179 116.367 33.7832 115.65 34.2222C114.942 34.6508 114.079 34.8625 113.066 34.8625H109.684V32.2804H112.712C113.243 32.2804 113.685 32.1771 114.039 31.9706C114.393 31.7537 114.659 31.449 114.836 31.0616C115.013 30.6795 115.102 30.2302 115.102 29.7189C115.102 29.1974 115.013 28.7481 114.836 28.3762C114.659 27.9941 114.393 27.6946 114.039 27.488C113.685 27.2711 113.234 27.1575 112.694 27.1575H110.676V39.9442H107.967Z" fill="#222222"/>
<path d="M123.864 39.9442V24.5547H129.033C130.033 24.5547 130.892 24.7613 131.6 25.1744C132.308 25.5875 132.844 26.1763 133.211 26.9302C133.588 27.6739 133.778 28.557 133.778 29.5743C133.778 30.5814 133.583 31.4541 133.194 32.1978C132.813 32.9311 132.264 33.494 131.547 33.8917C130.826 34.279 129.958 34.4701 128.945 34.4701H125.475V31.9292H128.626C129.157 31.9292 129.6 31.8415 129.954 31.6607C130.308 31.4696 130.573 31.2011 130.75 30.8551C130.928 30.4987 131.016 30.0701 131.016 29.5743C131.016 29.0528 130.928 28.619 130.75 28.273C130.573 27.9166 130.308 27.6429 129.954 27.4467C129.6 27.2556 129.148 27.1575 128.608 27.1575H126.572V39.9442H123.864ZM131.229 39.9442L128.059 32.9414H130.981L134.221 39.9442H131.229Z" fill="#222222"/>
<path d="M145.656 40.0581C144.558 40.0581 143.602 39.8257 142.788 39.3558C141.973 38.8755 141.34 38.2145 140.893 37.3727C140.442 36.5361 140.22 35.5549 140.22 34.4394V24.4414H142.912V34.1709C142.912 34.7802 143.022 35.3173 143.248 35.7821C143.469 36.2366 143.788 36.6032 144.204 36.8769C144.616 37.1403 145.098 37.2694 145.656 37.2694C146.209 37.2694 146.687 37.1403 147.09 36.8769C147.501 36.6032 147.82 36.2366 148.046 35.7821C148.28 35.3173 148.4 34.7802 148.4 34.1709V24.4414H151.091V34.4394C151.091 35.5549 150.865 36.5361 150.418 37.3727C149.967 38.2145 149.329 38.8755 148.506 39.3558C147.692 39.8257 146.74 40.0581 145.656 40.0581Z" fill="#222222"/>
<path d="M157.091 39.9442V24.5547H165.872V27.1988H159.8V31.3715H165.323V33.9536H159.8V39.9442H157.091Z" fill="#222222"/>
</svg>
