<svg width="379" height="28" viewBox="0 0 379 28" fill="none" xmlns="http://www.w3.org/2000/svg">
<path d="M119 2.70607C119.595 1.7042 120.331 1.00186 121.219 0.599054C122.115 0.201406 122.967 0 123.775 0C124.166 0 124.654 0.0929559 125.248 0.268541C125.852 0.433797 126.478 0.743653 127.13 1.19811C127.791 1.65256 128.417 2.30842 129.012 3.16052C129.602 4.0023 130.094 5.11778 130.485 6.50696C130.733 7.33324 130.947 8.06657 131.124 8.69661C131.302 9.31632 131.47 9.93603 131.639 10.5557C131.816 11.1754 132.016 11.9398 132.242 12.8487C132.535 13.8712 132.766 14.9454 132.935 16.0712C133.112 17.2021 133.241 18.4364 133.325 19.7688C133.489 19.0974 133.698 18.4261 133.946 17.765C134.204 17.0937 134.514 16.412 134.87 15.72C135.73 14.0158 136.121 12.1567 136.041 10.1426C135.957 8.11821 135.566 6.17645 134.87 4.31732C134.479 3.28447 133.946 2.7164 133.272 2.60278C132.606 2.49434 132.038 2.75771 131.568 3.38775L131.018 2.70607C131.63 1.7042 132.384 1.00186 133.272 0.599054C134.168 0.201406 135.012 0 135.793 0C136.205 0 136.707 0.0929559 137.301 0.268541C137.892 0.433797 138.517 0.743653 139.183 1.19811C139.844 1.65256 140.47 2.30842 141.065 3.16052C141.655 4.0023 142.147 5.11778 142.538 6.50696L144.295 12.8487C144.566 13.8712 144.792 14.935 144.97 16.0505C145.156 17.166 145.294 18.3951 145.378 19.7275C145.542 19.0819 145.751 18.4209 145.999 17.7444C146.257 17.0575 146.554 16.381 146.887 15.72C147.526 14.4702 147.908 13.1069 148.041 11.6299C148.17 10.1426 148.076 8.66562 147.757 7.18864C147.446 5.70134 146.945 4.3483 146.248 3.11921C145.547 1.87979 144.686 0.903745 143.656 0.185913H152.993C152.993 1.48214 152.825 2.84034 152.496 4.25535C152.164 5.67552 151.738 7.08019 151.218 8.46938C150.695 9.86373 150.14 11.1754 149.55 12.4149C148.968 13.644 148.418 14.7026 147.899 15.5961C147.304 16.6599 146.834 17.765 146.479 18.9218C146.133 20.0683 145.893 21.127 145.751 22.103C145.609 23.0842 145.538 23.8795 145.538 24.4992H144.739C144.739 23.2753 144.602 22.3199 144.331 21.6279C144.056 20.9411 143.701 20.4246 143.266 20.0786C142.826 19.7223 142.347 19.4538 141.828 19.273C141.318 19.0974 140.807 18.9218 140.301 18.7566C139.804 18.5913 139.352 18.3434 138.952 18.0129C138.548 17.6721 138.26 17.166 138.082 16.505C137.914 15.9266 137.754 15.3637 137.603 14.8111C137.448 14.2482 137.306 13.6956 137.177 13.1585C136.951 13.613 136.733 14.0468 136.52 14.4599C136.307 14.8627 136.094 15.2397 135.881 15.5961C135.287 16.6599 134.816 17.765 134.461 18.9218C134.115 20.0683 133.867 21.127 133.716 22.103C133.56 23.0842 133.485 23.8795 133.485 24.4992H132.704C132.704 23.2753 132.566 22.3199 132.296 21.6279C132.034 20.9411 131.683 20.4246 131.248 20.0786C130.809 19.7223 130.33 19.4538 129.81 19.273C129.3 19.0974 128.79 18.9218 128.284 18.7566C127.787 18.5913 127.334 18.3434 126.935 18.0129C126.531 17.6721 126.234 17.166 126.047 16.505C125.395 14.2069 124.845 12.0172 124.396 9.93603C123.957 7.86 123.429 5.98537 122.816 4.31732C122.448 3.28447 121.929 2.7164 121.254 2.60278C120.593 2.49434 120.012 2.75771 119.515 3.38775L119 2.70607Z" fill="#1A4B84"/>
<path d="M157.955 24.0861C156.783 24.0861 155.727 23.7711 154.795 23.1359C153.859 22.5059 153.118 21.6021 152.576 20.4298C152.044 19.2472 151.778 17.827 151.778 16.1745C151.778 14.5116 152.044 13.0863 152.576 11.8985C153.118 10.7159 153.859 9.81212 154.795 9.19241C155.727 8.56237 156.783 8.24219 157.955 8.24219C159.127 8.24219 160.178 8.56237 161.115 9.19241C162.047 9.81212 162.783 10.7159 163.316 11.8985C163.857 13.0863 164.132 14.5116 164.132 16.1745C164.132 17.827 163.857 19.2472 163.316 20.4298C162.783 21.6176 162.047 22.5265 161.115 23.1566C160.178 23.7763 159.127 24.0861 157.955 24.0861ZM157.955 21.2768C158.638 21.2768 159.237 21.0857 159.748 20.6984C160.267 20.3007 160.671 19.7223 160.955 18.9632C161.248 18.1937 161.399 17.2641 161.399 16.1745C161.399 15.0745 161.248 14.1449 160.955 13.3858C160.671 12.6163 160.267 12.0379 159.748 11.6506C159.237 11.2529 158.638 11.0515 157.955 11.0515C157.28 11.0515 156.681 11.2529 156.162 11.6506C155.638 12.0379 155.239 12.6163 154.955 13.3858C154.671 14.1449 154.529 15.0745 154.529 16.1745C154.529 17.2641 154.671 18.1885 154.955 18.9425C155.239 19.7017 155.638 20.2801 156.162 20.6777C156.681 21.0805 157.28 21.2768 157.955 21.2768Z" fill="#222222"/>
<path d="M166.691 23.8592V8.46973H171.874C172.877 8.46973 173.738 8.6763 174.448 9.08944C175.158 9.50258 175.695 10.0913 176.064 10.8453C176.441 11.5889 176.632 12.472 176.632 13.4894C176.632 14.4964 176.437 15.3692 176.046 16.1128C175.664 16.8461 175.114 17.4091 174.395 17.8067C173.672 18.194 172.802 18.3851 171.786 18.3851H168.307V15.8443H171.466C171.999 15.8443 172.443 15.7565 172.798 15.5757C173.153 15.3847 173.419 15.1161 173.596 14.7701C173.774 14.4138 173.863 13.9852 173.863 13.4894C173.863 12.9678 173.774 12.534 173.596 12.188C173.419 11.8317 173.153 11.558 172.798 11.3617C172.443 11.1706 171.99 11.0725 171.448 11.0725H169.407V23.8592H166.691ZM174.076 23.8592L170.898 16.8565H173.827L177.076 23.8592H174.076Z" fill="#222222"/>
<path d="M181.223 20.4301V17.3316C181.507 16.7945 181.783 16.2936 182.058 15.8236C182.328 15.3434 182.617 14.8682 182.928 14.3983C183.234 13.9335 183.576 13.4274 183.957 12.8903L187.206 8.46973H190.507L184.933 15.9682L184.703 15.9063L181.223 20.4301ZM179.235 23.8592V8.46973H181.951V12.6838L181.916 16.5879L181.951 18.1372V23.8592H179.235ZM187.454 23.8592L183.531 16.8978L185.217 14.5429L190.649 23.8592H187.454Z" fill="#222222"/>
<path d="M192.8 23.8592V8.46973H197.966C198.969 8.46973 199.83 8.69179 200.54 9.13075C201.25 9.55938 201.787 10.1636 202.155 10.9486C202.532 11.7232 202.723 12.6166 202.723 13.634C202.723 14.6565 202.532 15.5499 202.155 16.3194C201.773 17.094 201.223 17.6983 200.504 18.1372C199.794 18.5658 198.929 18.7776 197.913 18.7776H194.522V16.1955H197.558C198.09 16.1955 198.534 16.0922 198.889 15.8856C199.244 15.6687 199.51 15.364 199.688 14.9767C199.865 14.5945 199.954 14.1452 199.954 13.634C199.954 13.1124 199.865 12.6631 199.688 12.2913C199.51 11.9091 199.244 11.6096 198.889 11.403C198.534 11.1861 198.081 11.0725 197.54 11.0725H195.516V23.8592H192.8Z" fill="#222222"/>
<path d="M205.149 23.8592V8.46973H210.332C211.335 8.46973 212.196 8.6763 212.906 9.08944C213.616 9.50258 214.153 10.0913 214.522 10.8453C214.899 11.5889 215.09 12.472 215.09 13.4894C215.09 14.4964 214.895 15.3692 214.504 16.1128C214.122 16.8461 213.572 17.4091 212.853 17.8067C212.13 18.194 211.26 18.3851 210.244 18.3851H206.765V15.8443H209.924C210.457 15.8443 210.901 15.7565 211.256 15.5757C211.611 15.3847 211.877 15.1161 212.054 14.7701C212.232 14.4138 212.321 13.9852 212.321 13.4894C212.321 12.9678 212.232 12.534 212.054 12.188C211.877 11.8317 211.611 11.558 211.256 11.3617C210.901 11.1706 210.448 11.0725 209.906 11.0725H207.865V23.8592H205.149ZM212.534 23.8592L209.356 16.8565H212.285L215.534 23.8592H212.534Z" fill="#222222"/>
<path d="M223.143 24.0864C222.043 24.0864 221.084 23.854 220.268 23.3841C219.451 22.9038 218.816 22.2428 218.368 21.401C217.915 20.5644 217.694 19.5832 217.694 18.4677V8.46973H220.392V18.1992C220.392 18.8086 220.503 19.3456 220.729 19.8104C220.951 20.2649 221.27 20.6315 221.688 20.9053C222.1 21.1686 222.584 21.2977 223.143 21.2977C223.698 21.2977 224.177 21.1686 224.581 20.9053C224.994 20.6315 225.313 20.2649 225.54 19.8104C225.775 19.3456 225.895 18.8086 225.895 18.1992V8.46973H228.593V18.4677C228.593 19.5832 228.366 20.5644 227.918 21.401C227.466 22.2428 226.827 22.9038 226.001 23.3841C225.185 23.854 224.23 24.0864 223.143 24.0864Z" fill="#222222"/>
<path d="M231.516 23.8592V8.46973H240.32V11.1138H234.232V15.2865H239.77V17.8687H234.232V23.8592H231.516Z" fill="#222222"/>
</svg>
