<svg width="268" height="25" viewBox="0 0 268 25" fill="none" xmlns="http://www.w3.org/2000/svg">
<path d="M0 2.70607C0.593094 1.7042 1.32782 1.00186 2.21304 0.599054C3.1071 0.201406 3.95691 0 4.76245 0C5.15195 0 5.63881 0.0929559 6.23191 0.268541C6.83385 0.433797 7.45793 0.743653 8.10856 1.19811C8.76805 1.65256 9.39212 2.30842 9.98522 3.16052C10.5739 4.0023 11.0652 5.11778 11.4547 6.50696C11.7025 7.33324 11.915 8.06657 12.092 8.69661C12.2691 9.31632 12.4373 9.93603 12.6055 10.5557C12.7825 11.1754 12.9817 11.9398 13.2074 12.8487C13.4995 13.8712 13.7297 14.9454 13.8979 16.0712C14.0749 17.2021 14.2033 18.4364 14.2874 19.7688C14.4511 19.0974 14.6591 18.4261 14.907 17.765C15.1637 17.0937 15.4735 16.412 15.8276 15.72C16.6863 14.0158 17.0758 12.1567 16.9961 10.1426C16.912 8.11821 16.5225 6.17645 15.8276 4.31732C15.4381 3.28447 14.907 2.7164 14.2342 2.60278C13.5703 2.49434 13.0038 2.75771 12.5346 3.38775L11.9858 2.70607C12.5966 1.7042 13.349 1.00186 14.2342 0.599054C15.1283 0.201406 15.9693 0 16.7483 0C17.1599 0 17.66 0.0929559 18.2531 0.268541C18.8418 0.433797 19.4659 0.743653 20.1298 1.19811C20.7893 1.65256 21.4133 2.30842 22.0064 3.16052C22.5951 4.0023 23.0864 5.11778 23.4759 6.50696L25.2286 12.8487C25.4986 13.8712 25.7243 14.935 25.9014 16.0505C26.0873 17.166 26.2245 18.3951 26.3086 19.7275C26.4723 19.0819 26.6804 18.4209 26.9282 17.7444C27.1849 17.0575 27.4815 16.381 27.8134 15.72C28.4508 14.4702 28.8314 13.1069 28.9642 11.6299C29.0926 10.1426 28.9996 8.66562 28.6809 7.18864C28.3711 5.70134 27.871 4.3483 27.1761 3.11921C26.4768 1.87979 25.6181 0.903745 24.5913 0.185913H33.9037C33.9037 1.48214 33.7355 2.84034 33.408 4.25535C33.076 5.67552 32.6511 7.08019 32.1333 8.46938C31.611 9.86373 31.0577 11.1754 30.4691 12.4149C29.8893 13.644 29.3404 14.7026 28.8226 15.5961C28.2295 16.6599 27.7603 17.765 27.4062 18.9218C27.061 20.0683 26.822 21.127 26.6804 22.103C26.5387 23.0842 26.4679 23.8795 26.4679 24.4992H25.6712C25.6712 23.2753 25.534 22.3199 25.264 21.6279C24.9896 20.9411 24.6355 20.4246 24.2018 20.0786C23.7636 19.7223 23.2856 19.4538 22.7677 19.273C22.2587 19.0974 21.7497 18.9218 21.2451 18.7566C20.7494 18.5913 20.298 18.3434 19.8996 18.0129C19.4968 17.6721 19.2092 17.166 19.0321 16.505C18.8639 15.9266 18.7046 15.3637 18.5541 14.8111C18.3992 14.2482 18.2575 13.6956 18.1292 13.1585C17.9035 13.613 17.6866 14.0468 17.4741 14.4599C17.2617 14.8627 17.0492 15.2397 16.8368 15.5961C16.2437 16.6599 15.7745 17.765 15.4204 18.9218C15.0752 20.0683 14.8273 21.127 14.6769 22.103C14.5219 23.0842 14.4467 23.8795 14.4467 24.4992H13.6677C13.6677 23.2753 13.5305 22.3199 13.2605 21.6279C12.9994 20.9411 12.6497 20.4246 12.216 20.0786C11.7778 19.7223 11.2998 19.4538 10.7819 19.273C10.2729 19.0974 9.76391 18.9218 9.25934 18.7566C8.76362 18.5913 8.31216 18.3434 7.91382 18.0129C7.51104 17.6721 7.2145 17.166 7.0286 16.505C6.37797 14.2069 5.82914 12.0172 5.3821 9.93603C4.94392 7.86 4.41722 5.98537 3.80642 4.31732C3.43906 3.28447 2.92121 2.7164 2.24844 2.60278C1.58896 2.49434 1.00914 2.75771 0.513424 3.38775L0 2.70607Z" fill="#2B5DE8"/>
<path d="M62.0649 20.1716C60.8964 20.1716 59.843 19.8566 58.9135 19.2213C57.9796 18.5913 57.2405 17.6876 56.7005 16.5153C56.1694 15.3327 55.9038 13.9125 55.9038 12.2599C55.9038 10.597 56.1694 9.17171 56.7005 7.98393C57.2405 6.80132 57.9796 5.89757 58.9135 5.27786C59.843 4.64782 60.8964 4.32764 62.0649 4.32764C63.2334 4.32764 64.2824 4.64782 65.2163 5.27786C66.1457 5.89757 66.8805 6.80132 67.4116 7.98393C67.9516 9.17171 68.226 10.597 68.226 12.2599C68.226 13.9125 67.9516 15.3327 67.4116 16.5153C66.8805 17.7031 66.1457 18.612 65.2163 19.242C64.2824 19.8617 63.2334 20.1716 62.0649 20.1716ZM62.0649 17.3622C62.7465 17.3622 63.344 17.1711 63.853 16.7838C64.3709 16.3862 64.7737 15.8078 65.0569 15.0486C65.349 14.2792 65.4995 13.3496 65.4995 12.2599C65.4995 11.1599 65.349 10.2304 65.0569 9.47124C64.7737 8.70176 64.3709 8.12336 63.853 7.73605C63.344 7.3384 62.7465 7.13699 62.0649 7.13699C61.3921 7.13699 60.7946 7.3384 60.2768 7.73605C59.7545 8.12336 59.3561 8.70176 59.0729 9.47124C58.7896 10.2304 58.648 11.1599 58.648 12.2599C58.648 13.3496 58.7896 14.274 59.0729 15.028C59.3561 15.7871 59.7545 16.3655 60.2768 16.7632C60.7946 17.166 61.3921 17.3622 62.0649 17.3622Z" fill="white"/>
<path d="M90.2258 19.9444V4.55493H95.3955C96.3958 4.55493 97.2544 4.7615 97.9626 5.17464C98.6708 5.58778 99.2063 6.17651 99.5737 6.93049C99.9499 7.67414 100.14 8.55723 100.14 9.57459C100.14 10.5816 99.9455 11.4544 99.556 12.198C99.1753 12.9314 98.6265 13.4943 97.9095 13.8919C97.188 14.2792 96.3205 14.4703 95.307 14.4703H91.8369V11.9295H94.9883C95.5194 11.9295 95.962 11.8417 96.3161 11.6609C96.6702 11.4699 96.9358 11.2013 97.1128 10.8553C97.2898 10.499 97.3784 10.0704 97.3784 9.57459C97.3784 9.053 97.2898 8.6192 97.1128 8.2732C96.9358 7.91686 96.6702 7.64316 96.3161 7.44691C95.962 7.25584 95.5106 7.15772 94.9706 7.15772H92.9346V19.9444H90.2258ZM97.5908 19.9444L94.4217 12.9417H97.343L100.583 19.9444H97.5908Z" fill="white"/>
<path d="M124.566 16.5153V13.4168C124.849 12.8797 125.124 12.3788 125.398 11.9088C125.668 11.4286 125.956 10.9534 126.265 10.4835C126.571 10.0187 126.912 9.51262 127.292 8.97553L130.532 4.55493H133.825L128.266 12.0534L128.036 11.9915L124.566 16.5153ZM122.583 19.9444V4.55493H125.292V8.76896L125.256 12.6731L125.292 14.2224V19.9444H122.583ZM130.78 19.9444L126.867 12.983L128.549 10.6281L133.967 19.9444H130.78Z" fill="white"/>
<path d="M155.967 19.9444V4.55493H161.119C162.119 4.55493 162.978 4.77699 163.686 5.21596C164.394 5.64459 164.93 6.24881 165.297 7.03377C165.673 7.80841 165.863 8.70183 165.863 9.71919C165.863 10.7417 165.673 11.6351 165.297 12.4046C164.916 13.1792 164.367 13.7835 163.65 14.2224C162.942 14.6511 162.079 14.8628 161.066 14.8628H157.684V12.2807H160.712C161.243 12.2807 161.685 12.1774 162.039 11.9708C162.393 11.7539 162.659 11.4492 162.836 11.0619C163.013 10.6797 163.102 10.2304 163.102 9.71919C163.102 9.1976 163.013 8.74831 162.836 8.37648C162.659 7.99433 162.393 7.6948 162.039 7.48823C161.685 7.27133 161.234 7.15772 160.694 7.15772H158.676V19.9444H155.967Z" fill="white"/>
<path d="M187.864 19.9444V4.55493H193.033C194.033 4.55493 194.892 4.7615 195.6 5.17464C196.308 5.58778 196.844 6.17651 197.211 6.93049C197.588 7.67414 197.778 8.55723 197.778 9.57459C197.778 10.5816 197.583 11.4544 197.194 12.198C196.813 12.9314 196.264 13.4943 195.547 13.8919C194.826 14.2792 193.958 14.4703 192.945 14.4703H189.475V11.9295H192.626C193.157 11.9295 193.6 11.8417 193.954 11.6609C194.308 11.4699 194.573 11.2013 194.75 10.8553C194.928 10.499 195.016 10.0704 195.016 9.57459C195.016 9.053 194.928 8.6192 194.75 8.2732C194.573 7.91686 194.308 7.64316 193.954 7.44691C193.6 7.25584 193.148 7.15772 192.608 7.15772H190.572V19.9444H187.864ZM195.229 19.9444L192.059 12.9417H194.981L198.221 19.9444H195.229Z" fill="white"/>
<path d="M225.656 20.058C224.558 20.058 223.602 19.8256 222.788 19.3557C221.973 18.8754 221.34 18.2144 220.893 17.3726C220.442 16.536 220.22 15.5548 220.22 14.4393V4.44128H222.912V14.1707C222.912 14.7801 223.022 15.3172 223.248 15.782C223.469 16.2364 223.788 16.6031 224.204 16.8768C224.616 17.1402 225.098 17.2693 225.656 17.2693C226.209 17.2693 226.687 17.1402 227.09 16.8768C227.501 16.6031 227.82 16.2364 228.046 15.782C228.28 15.3172 228.4 14.7801 228.4 14.1707V4.44128H231.091V14.4393C231.091 15.5548 230.865 16.536 230.418 17.3726C229.967 18.2144 229.329 18.8754 228.506 19.3557C227.692 19.8256 226.74 20.058 225.656 20.058Z" fill="white"/>
<path d="M253.091 19.9444V4.55493H261.872V7.19903H255.8V11.3717H261.323V13.9539H255.8V19.9444H253.091Z" fill="white"/>
</svg>
