<svg width="16" height="16" viewBox="0 0 16 16" fill="none" xmlns="http://www.w3.org/2000/svg">
<path d="M7.66675 11.3333H2.66675C3.03004 11.1276 3.33995 10.8395 3.57154 10.4921C3.80312 10.1447 3.94991 9.7478 4.00008 9.33333V7.33333C4.03979 6.48738 4.30895 5.66818 4.77871 4.96353C5.24848 4.25888 5.90114 3.69535 6.66675 3.33333C6.66675 2.97971 6.80722 2.64057 7.05727 2.39052C7.30732 2.14048 7.64646 2 8.00008 2C8.3537 2 8.69284 2.14048 8.94289 2.39052C9.19294 2.64057 9.33341 2.97971 9.33341 3.33333C10.099 3.69535 10.7517 4.25888 11.2214 4.96353C11.6912 5.66818 11.9604 6.48738 12.0001 7.33333V9.33333C12.0107 9.41933 12.0247 9.504 12.0434 9.588M6.00008 11.3333V12C5.99998 12.4729 6.16749 12.9306 6.47286 13.2918C6.77823 13.6529 7.2017 13.8942 7.66808 13.9727M10.0001 12.6667L11.3334 14L14.0001 11.3333" stroke="#5F5F5F" stroke-linecap="round" stroke-linejoin="round"/>
</svg>
