<svg width="32" height="32" viewBox="0 0 32 32" fill="none" xmlns="http://www.w3.org/2000/svg">
<rect width="32" height="32" rx="16" fill="#F5F6FA"/>
<path d="M15.6667 19.3333H10.6667C11.03 19.1276 11.34 18.8395 11.5715 18.4921C11.8031 18.1447 11.9499 17.7478 12.0001 17.3333V15.3333C12.0398 14.4874 12.3089 13.6682 12.7787 12.9635C13.2485 12.2589 13.9011 11.6954 14.6667 11.3333C14.6667 10.9797 14.8072 10.6406 15.0573 10.3905C15.3073 10.1405 15.6465 10 16.0001 10C16.3537 10 16.6928 10.1405 16.9429 10.3905C17.1929 10.6406 17.3334 10.9797 17.3334 11.3333C18.099 11.6954 18.7517 12.2589 19.2214 12.9635C19.6912 13.6682 19.9604 14.4874 20.0001 15.3333V17.3333C20.0107 17.4193 20.0247 17.504 20.0434 17.588M14.0001 19.3333V20C14 20.4729 14.1675 20.9306 14.4729 21.2918C14.7782 21.6529 15.2017 21.8942 15.6681 21.9727M18.0001 20.6667L19.3334 22L22.0001 19.3333" stroke="#5F5F5F" stroke-linecap="round" stroke-linejoin="round"/>
<circle cx="19" cy="11" r="3" fill="#DC3545"/>
</svg>
