<svg width="20" height="20" viewBox="0 0 20 20" fill="none" xmlns="http://www.w3.org/2000/svg">
<path d="M9.99984 11.1667L12.4165 13.5834C12.5693 13.7362 12.7637 13.8126 12.9998 13.8126C13.2359 13.8126 13.4304 13.7362 13.5832 13.5834C13.7359 13.4306 13.8123 13.2362 13.8123 13.0001C13.8123 12.764 13.7359 12.5695 13.5832 12.4167L11.1665 10.0001L13.5832 7.58342C13.7359 7.43064 13.8123 7.23619 13.8123 7.00008C13.8123 6.76397 13.7359 6.56953 13.5832 6.41675C13.4304 6.26397 13.2359 6.18758 12.9998 6.18758C12.7637 6.18758 12.5693 6.26397 12.4165 6.41675L9.99984 8.83342L7.58317 6.41675C7.43039 6.26397 7.23595 6.18758 6.99984 6.18758C6.76373 6.18758 6.56928 6.26397 6.4165 6.41675C6.26373 6.56953 6.18734 6.76397 6.18734 7.00008C6.18734 7.23619 6.26373 7.43064 6.4165 7.58342L8.83317 10.0001L6.4165 12.4167C6.26373 12.5695 6.18734 12.764 6.18734 13.0001C6.18734 13.2362 6.26373 13.4306 6.4165 13.5834C6.56928 13.7362 6.76373 13.8126 6.99984 13.8126C7.23595 13.8126 7.43039 13.7362 7.58317 13.5834L9.99984 11.1667ZM9.99984 18.3334C8.84706 18.3334 7.76373 18.1145 6.74984 17.6767C5.73595 17.239 4.854 16.6454 4.10401 15.8959C3.354 15.1465 2.76039 14.2645 2.32317 13.2501C1.88595 12.2356 1.66706 11.1523 1.6665 10.0001C1.66595 8.84786 1.88484 7.76453 2.32317 6.75008C2.76151 5.73564 3.35512 4.85369 4.10401 4.10425C4.85289 3.3548 5.73484 2.76119 6.74984 2.32341C7.76484 1.88564 8.84817 1.66675 9.99984 1.66675C11.1515 1.66675 12.2348 1.88564 13.2498 2.32341C14.2648 2.76119 15.1468 3.3548 15.8957 4.10425C16.6446 4.85369 17.2384 5.73564 17.6773 6.75008C18.1162 7.76453 18.3348 8.84786 18.3332 10.0001C18.3315 11.1523 18.1126 12.2356 17.6765 13.2501C17.2404 14.2645 16.6468 15.1465 15.8957 15.8959C15.1446 16.6454 14.2626 17.2392 13.2498 17.6776C12.2371 18.1159 11.1537 18.3345 9.99984 18.3334ZM9.99984 16.6667C11.8609 16.6667 13.4373 16.0209 14.729 14.7292C16.0207 13.4376 16.6665 11.8612 16.6665 10.0001C16.6665 8.13897 16.0207 6.56258 14.729 5.27091C13.4373 3.97925 11.8609 3.33341 9.99984 3.33341C8.13873 3.33341 6.56234 3.97925 5.27067 5.27091C3.979 6.56258 3.33317 8.13897 3.33317 10.0001C3.33317 11.8612 3.979 13.4376 5.27067 14.7292C6.56234 16.0209 8.13873 16.6667 9.99984 16.6667Z" fill="#DC3545"/>
</svg>
