<svg width="20" height="20" viewBox="0 0 20 20" fill="none" xmlns="http://www.w3.org/2000/svg">
<path d="M9.99984 18.3334C11.0944 18.3348 12.1784 18.1198 13.1896 17.701C14.2009 17.2821 15.1194 16.6675 15.8923 15.8926C16.6673 15.1196 17.2818 14.2011 17.7007 13.1899C18.1196 12.1787 18.3345 11.0946 18.3332 10.0001C18.3345 8.90554 18.1196 7.82152 17.7007 6.81029C17.2818 5.79907 16.6673 4.88058 15.8923 4.10759C15.1194 3.33265 14.2009 2.7181 13.1896 2.29922C12.1784 1.88034 11.0944 1.6654 9.99984 1.66675C8.9053 1.6654 7.82127 1.88034 6.81005 2.29922C5.79882 2.7181 4.88033 3.33265 4.10734 4.10759C3.33241 4.88058 2.71785 5.79907 2.29897 6.81029C1.8801 7.82152 1.66516 8.90554 1.66651 10.0001C1.66516 11.0946 1.8801 12.1787 2.29897 13.1899C2.71785 14.2011 3.33241 15.1196 4.10734 15.8926C4.88033 16.6675 5.79882 17.2821 6.81005 17.701C7.82127 18.1198 8.9053 18.3348 9.99984 18.3334Z" stroke="#4CAF50" stroke-width="2" stroke-linejoin="round"/>
<path d="M6.6665 10L9.1665 12.5L14.1665 7.5" stroke="#4CAF50" stroke-width="2" stroke-linecap="round" stroke-linejoin="round"/>
</svg>
